<?xml version="1.0" encoding="iso-8859-1"?>
<!DOCTYPE svg PUBLIC "-//W3C//DTD SVG 1.1//EN" "http://www.w3.org/Graphics/SVG/1.1/DTD/svg11.dtd">
<svg 
 version="1.1" xmlns="http://www.w3.org/2000/svg" xmlns:xlink="http://www.w3.org/1999/xlink" x="0px" y="0px" width="512px"
	 height="512px" viewBox="0 0 512 512" enable-background="new 0 0 512 512" xml:space="preserve"
><g fill="#c6c6c6" id="e6c6b53d3c8160b22dad35a0f70b15d3"><g></g><path display="inline" d="M38.866,49.277c3.982-7.337,11.54-11.499,19.34-11.501c3.542,0,7.131,0.858,10.462,2.668l196.669,106.74
		c8.634,4.684,12.764,14.306,10.999,23.463c-0.086,0.494-0.168,0.985-0.292,1.475c-0.129,0.491-0.279,0.975-0.446,1.462
		c-0.378,1.152-0.824,2.295-1.426,3.402c-2.795,5.153-7.357,8.742-12.526,10.421c-2.189,0.711-4.488,1.077-6.809,1.077
		c-3.542,0-7.132-0.856-10.466-2.665L47.697,79.079C37.029,73.29,33.075,59.945,38.866,49.277z M510.547,209.488l-47.515,221.755
		c-5.065,23.637-28.995,42.98-53.173,42.98H102.14c-24.178,0-48.106-19.344-53.172-42.98L1.453,209.488
		c-5.065-23.642,10.569-42.983,34.748-42.983h126.505l71.181,38.632c6.42,3.486,13.667,5.33,20.95,5.33
		c4.618,0,9.187-0.726,13.587-2.15c10.775-3.499,19.675-10.904,25.071-20.854c3.55-6.54,5.336-13.714,5.327-20.958H475.8
		C499.978,166.505,515.612,185.847,510.547,209.488z M147.352,379.736l-28.737-107.023c-2.833-10.553-13.684-16.816-24.236-13.974
		c-10.552,2.833-16.809,13.682-13.976,24.233l28.737,107.023c2.372,8.835,10.363,14.656,19.093,14.656
		c1.698,0,3.426-0.219,5.143-0.683C143.928,401.137,150.185,390.288,147.352,379.736z M234.151,382.148l-19.215-108.491
		c-1.908-10.759-12.196-17.953-22.929-16.026c-10.758,1.902-17.934,12.171-16.03,22.929l19.215,108.492
		c1.7,9.59,10.043,16.335,19.456,16.335c1.146,0,2.308-0.099,3.473-0.31C228.879,403.176,236.055,392.906,234.151,382.148z
		 M319.995,257.631c-10.745-1.94-21.027,5.268-22.929,16.026l-19.215,108.491c-1.906,10.758,5.267,21.027,16.025,22.929
		c1.168,0.211,2.326,0.31,3.473,0.31c9.415,0,17.76-6.745,19.456-16.335l19.215-108.492
		C337.927,269.802,330.753,259.533,319.995,257.631z M417.621,258.739c-10.535-2.847-21.404,3.412-24.233,13.974L364.65,379.736
		c-2.833,10.552,3.422,21.4,13.974,24.233c1.717,0.464,3.443,0.683,5.143,0.683c8.728,0,16.722-5.821,19.091-14.656l28.737-107.023
		C434.429,272.421,428.174,261.572,417.621,258.739z"></path></g></svg>